<svg width="351" height="350" viewBox="0 0 351 350" fill="none" xmlns="http://www.w3.org/2000/svg">
<g clip-path="url(#clip0_16_12)">
<mask id="path-1-inside-1_16_12" fill="white">
<path d="M220.292 116.983C207.431 94.9707 187.619 77.8567 163.972 68.3304C140.325 58.804 114.182 57.4055 89.6537 64.3546C65.125 71.3037 43.6008 86.2064 28.4641 106.72C13.3274 127.234 5.43639 152.197 6.03132 177.684C6.62624 203.171 15.6734 227.738 31.7508 247.523C47.8281 267.308 70.0242 281.19 94.8504 286.987C119.677 292.785 145.725 290.168 168.902 279.548C192.079 268.929 211.071 250.909 222.891 228.321L174.998 203.258C168.734 215.229 158.669 224.779 146.386 230.406C134.103 236.034 120.299 237.421 107.142 234.349C93.985 231.277 82.2219 223.92 73.7016 213.434C65.1812 202.949 60.3866 189.929 60.0713 176.422C59.7561 162.915 63.938 149.686 71.9598 138.815C79.9816 127.943 91.3886 120.045 104.388 116.363C117.387 112.68 131.241 113.421 143.773 118.47C156.305 123.518 166.805 132.588 173.621 144.253L220.292 116.983Z"/>
</mask>
<path d="M220.292 116.983C207.431 94.9707 187.619 77.8567 163.972 68.3304C140.325 58.804 114.182 57.4055 89.6537 64.3546C65.125 71.3037 43.6008 86.2064 28.4641 106.72C13.3274 127.234 5.43639 152.197 6.03132 177.684C6.62624 203.171 15.6734 227.738 31.7508 247.523C47.8281 267.308 70.0242 281.19 94.8504 286.987C119.677 292.785 145.725 290.168 168.902 279.548C192.079 268.929 211.071 250.909 222.891 228.321L174.998 203.258C168.734 215.229 158.669 224.779 146.386 230.406C134.103 236.034 120.299 237.421 107.142 234.349C93.985 231.277 82.2219 223.92 73.7016 213.434C65.1812 202.949 60.3866 189.929 60.0713 176.422C59.7561 162.915 63.938 149.686 71.9598 138.815C79.9816 127.943 91.3886 120.045 104.388 116.363C117.387 112.68 131.241 113.421 143.773 118.47C156.305 123.518 166.805 132.588 173.621 144.253L220.292 116.983Z" fill="#00FFBF" stroke="#00798C" stroke-width="16" mask="url(#path-1-inside-1_16_12)"/>
<path d="M156.032 194.656C156.032 201.568 153.472 207.456 148.352 212.32C143.317 217.099 135.979 220 126.336 221.024V235.36H115.84V221.152C109.525 220.725 103.552 219.573 97.92 217.696C92.288 215.819 87.808 213.429 84.48 210.528L90.24 197.6C93.3973 200.16 97.2373 202.336 101.76 204.128C106.283 205.835 110.976 206.901 115.84 207.328V181.728C109.781 180.277 104.704 178.699 100.608 176.992C96.5973 175.2 93.2267 172.64 90.496 169.312C87.7653 165.899 86.4 161.419 86.4 155.872C86.4 148.96 88.9173 143.072 93.952 138.208C98.9867 133.344 106.283 130.443 115.84 129.504V115.04H126.336V129.248C131.115 129.504 135.765 130.315 140.288 131.68C144.896 133.045 148.907 134.837 152.32 137.056L147.072 149.984C140.587 146.229 133.675 143.925 126.336 143.072V168.928C132.48 170.379 137.557 171.957 141.568 173.664C145.664 175.371 149.077 177.931 151.808 181.344C154.624 184.672 156.032 189.109 156.032 194.656ZM102.912 155.104C102.912 157.92 104.021 160.181 106.24 161.888C108.459 163.595 111.659 165.045 115.84 166.24V143.456C111.488 144.139 108.245 145.504 106.112 147.552C103.979 149.6 102.912 152.117 102.912 155.104ZM126.336 207.072C130.859 206.389 134.187 205.067 136.32 203.104C138.539 201.141 139.648 198.709 139.648 195.808C139.648 192.907 138.496 190.603 136.192 188.896C133.888 187.104 130.603 185.611 126.336 184.416V207.072Z" fill="#00FFBF"/>
<path d="M180.192 162.44C183.52 162.44 186.485 163.165 189.088 164.616C191.733 166.067 193.803 168.115 195.296 170.76C196.789 173.405 197.536 176.456 197.536 179.912C197.536 183.368 196.789 186.44 195.296 189.128C193.803 191.773 191.733 193.821 189.088 195.272C186.485 196.723 183.52 197.448 180.192 197.448C175.584 197.448 171.936 195.912 169.248 192.84V209.416H161.248V162.824H168.864V167.304C170.187 165.683 171.808 164.467 173.728 163.656C175.691 162.845 177.845 162.44 180.192 162.44ZM179.296 190.6C182.24 190.6 184.651 189.619 186.528 187.656C188.448 185.693 189.408 183.112 189.408 179.912C189.408 176.712 188.448 174.131 186.528 172.168C184.651 170.205 182.24 169.224 179.296 169.224C177.376 169.224 175.648 169.672 174.112 170.568C172.576 171.421 171.36 172.659 170.464 174.28C169.568 175.901 169.12 177.779 169.12 179.912C169.12 182.045 169.568 183.923 170.464 185.544C171.36 187.165 172.576 188.424 174.112 189.32C175.648 190.173 177.376 190.6 179.296 190.6ZM221.379 190.664C225.091 190.664 228.184 189.427 230.659 186.952L234.883 191.88C233.39 193.715 231.47 195.101 229.123 196.04C226.776 196.979 224.131 197.448 221.187 197.448C217.432 197.448 214.126 196.701 211.267 195.208C208.408 193.715 206.19 191.645 204.611 189C203.075 186.312 202.307 183.283 202.307 179.912C202.307 176.584 203.054 173.597 204.547 170.952C206.083 168.264 208.174 166.173 210.819 164.68C213.507 163.187 216.536 162.44 219.907 162.44C223.107 162.44 226.008 163.144 228.611 164.552C231.256 165.917 233.347 167.901 234.883 170.504C236.419 173.064 237.187 176.072 237.187 179.528L211.011 184.648C211.822 186.611 213.123 188.104 214.915 189.128C216.707 190.152 218.862 190.664 221.379 190.664ZM219.907 168.84C216.963 168.84 214.574 169.8 212.739 171.72C210.947 173.64 210.051 176.221 210.051 179.464V179.528L229.379 175.816C228.824 173.725 227.694 172.04 225.987 170.76C224.323 169.48 222.296 168.84 219.907 168.84ZM264.265 162.44C268.574 162.44 272.03 163.699 274.633 166.216C277.236 168.733 278.537 172.467 278.537 177.416V197H270.537V178.44C270.537 175.453 269.833 173.213 268.425 171.72C267.017 170.184 265.012 169.416 262.409 169.416C259.465 169.416 257.14 170.312 255.433 172.104C253.726 173.853 252.873 176.392 252.873 179.72V197H244.873V162.824H252.489V167.24C253.812 165.661 255.476 164.467 257.481 163.656C259.486 162.845 261.748 162.44 264.265 162.44ZM322.47 149.512V197H314.79V192.584C313.467 194.205 311.825 195.421 309.862 196.232C307.942 197.043 305.809 197.448 303.462 197.448C300.177 197.448 297.211 196.723 294.566 195.272C291.963 193.821 289.915 191.773 288.422 189.128C286.929 186.44 286.182 183.368 286.182 179.912C286.182 176.456 286.929 173.405 288.422 170.76C289.915 168.115 291.963 166.067 294.566 164.616C297.211 163.165 300.177 162.44 303.462 162.44C305.723 162.44 307.793 162.824 309.67 163.592C311.547 164.36 313.147 165.512 314.47 167.048V149.512H322.47ZM304.422 190.6C306.342 190.6 308.07 190.173 309.606 189.32C311.142 188.424 312.358 187.165 313.254 185.544C314.15 183.923 314.598 182.045 314.598 179.912C314.598 177.779 314.15 175.901 313.254 174.28C312.358 172.659 311.142 171.421 309.606 170.568C308.07 169.672 306.342 169.224 304.422 169.224C302.502 169.224 300.774 169.672 299.238 170.568C297.702 171.421 296.486 172.659 295.59 174.28C294.694 175.901 294.246 177.779 294.246 179.912C294.246 182.045 294.694 183.923 295.59 185.544C296.486 187.165 297.702 188.424 299.238 189.32C300.774 190.173 302.502 190.6 304.422 190.6ZM332.936 162.824H340.936V197H332.936V162.824ZM336.968 157.192C335.517 157.192 334.301 156.744 333.32 155.848C332.338 154.909 331.848 153.757 331.848 152.392C331.848 151.027 332.338 149.896 333.32 149C334.301 148.061 335.517 147.592 336.968 147.592C338.418 147.592 339.634 148.04 340.616 148.936C341.597 149.789 342.088 150.877 342.088 152.2C342.088 153.608 341.597 154.803 340.616 155.784C339.677 156.723 338.461 157.192 336.968 157.192Z" fill="#00FFBF"/>
</g>
<defs>
<clipPath id="clip0_16_12">
<rect width="351" height="350" fill="white"/>
</clipPath>
</defs>
</svg>
